<svg xmlns="http://www.w3.org/2000/svg" viewBox="0 0 400 400" opacity="0.08">
  <path d="M60,100 Q60,80 100,80 L180,80 Q200,80 200,100 L200,300 Q200,320 180,320 L100,320 Q60,320 60,300 Z" fill="none" stroke="#F43F5E" stroke-width="2"/>
  <path d="M200,100 Q200,80 220,80 L300,80 Q340,80 340,100 L340,300 Q340,320 300,320 L220,320 Q200,320 200,300 Z" fill="none" stroke="#F43F5E" stroke-width="2"/>
  <line x1="80" y1="120" x2="180" y2="120" stroke="#F43F5E" stroke-width="1"/>
  <line x1="80" y1="150" x2="180" y2="150" stroke="#F43F5E" stroke-width="1"/>
  <line x1="80" y1="180" x2="160" y2="180" stroke="#F43F5E" stroke-width="1"/>
  <line x1="220" y1="120" x2="320" y2="120" stroke="#F43F5E" stroke-width="1"/>
  <line x1="220" y1="150" x2="320" y2="150" stroke="#F43F5E" stroke-width="1"/>
  <line x1="220" y1="180" x2="300" y2="180" stroke="#F43F5E" stroke-width="1"/>
</svg>